<svg width="16" height="14" viewBox="0 0 16 14" fill="none" xmlns="http://www.w3.org/2000/svg">
<path d="M6.32046 8.77513C5.88921 8.34463 5.62671 7.75963 5.62671 7.10338C5.62671 5.78863 6.68571 4.72888 7.99971 4.72888C8.64996 4.72888 9.24846 4.99213 9.67221 5.42263" stroke="#ADA4A5" stroke-width="1.2" stroke-linecap="round" stroke-linejoin="round"/>
<path d="M10.3288 7.52417C10.1548 8.49167 9.39278 9.25517 8.42603 9.43067" stroke="#ADA4A5" stroke-width="1.2" stroke-linecap="round" stroke-linejoin="round"/>
<path d="M3.99101 11.1042C2.80076 10.1697 1.79276 8.80473 1.06226 7.10298C1.80026 5.39373 2.81501 4.02123 4.01276 3.07923C5.20301 2.13723 6.57626 1.62573 7.99976 1.62573C9.43151 1.62573 10.804 2.14473 12.0018 3.09348" stroke="#ADA4A5" stroke-width="1.2" stroke-linecap="round" stroke-linejoin="round"/>
<path d="M13.5858 4.74316C14.1018 5.42866 14.5556 6.21991 14.9373 7.10266C13.4621 10.5204 10.8551 12.5792 7.99983 12.5792C7.35258 12.5792 6.71433 12.4742 6.10083 12.2694" stroke="#ADA4A5" stroke-width="1.2" stroke-linecap="round" stroke-linejoin="round"/>
<path d="M13.9152 1.18726L2.08472 13.0178" stroke="#ADA4A5" stroke-width="1.2" stroke-linecap="round" stroke-linejoin="round"/>
</svg>
